<?xml version="1.0" encoding="UTF-8" standalone="no"?><!-- Generator: Gravit.io --><svg xmlns="http://www.w3.org/2000/svg" xmlns:xlink="http://www.w3.org/1999/xlink" style="isolation:isolate" viewBox="0 0 8.408 19.856" width="8.408pt" height="19.856pt"><defs><clipPath id="_clipPath_DJRmNTgUv5giEAdOQmWUg7CxknliuEWR"><rect width="8.408" height="19.856"/></clipPath></defs><g clip-path="url(#_clipPath_DJRmNTgUv5giEAdOQmWUg7CxknliuEWR)"><g><path d=" M 8.408 3.3 C 8.408 3.818 8.31 4.356 8.113 4.916 C 7.916 5.475 7.643 5.986 7.295 6.448 C 6.947 6.91 6.533 7.291 6.052 7.592 C 5.571 7.892 5.047 8.042 4.479 8.042 C 4.277 8.042 4.073 8.008 3.867 7.938 C 3.661 7.869 3.474 7.767 3.304 7.633 C 3.135 7.499 2.997 7.34 2.892 7.155 C 2.787 6.97 2.734 6.762 2.734 6.531 C 2.734 6.42 2.78 6.325 2.871 6.247 C 2.963 6.168 3.064 6.129 3.174 6.129 C 3.311 6.129 3.428 6.198 3.524 6.337 C 3.62 6.476 3.725 6.626 3.84 6.788 C 3.954 6.949 4.092 7.099 4.252 7.238 C 4.412 7.377 4.625 7.446 4.891 7.446 C 5.221 7.446 5.514 7.333 5.77 7.106 C 6.027 6.88 6.242 6.605 6.416 6.281 C 6.59 5.958 6.723 5.614 6.814 5.248 C 6.906 4.883 6.952 4.562 6.952 4.285 C 6.952 3.933 6.906 3.587 6.814 3.245 C 6.723 2.903 6.583 2.6 6.395 2.336 C 6.208 2.073 5.969 1.86 5.681 1.699 C 5.392 1.537 5.056 1.456 4.671 1.456 C 4.222 1.456 3.845 1.609 3.538 1.914 C 3.231 2.219 2.979 2.609 2.782 3.085 C 2.585 3.561 2.434 4.095 2.329 4.687 C 2.223 5.278 2.146 5.863 2.095 6.441 C 2.045 7.019 2.015 7.552 2.006 8.042 C 1.997 8.532 1.992 8.921 1.992 9.207 C 1.992 10.548 1.955 11.756 1.882 12.833 C 1.809 13.91 1.708 14.883 1.58 15.752 C 1.452 16.621 1.301 17.391 1.127 18.061 C 0.953 18.731 0.765 19.329 0.563 19.856 L 0.22 19.856 L 0.22 13.228 C 0.22 11.204 0.183 9.191 0.11 7.19 C 0.037 5.188 0 3.171 0 1.137 C 0 0.924 0.044 0.746 0.131 0.603 C 0.218 0.46 0.332 0.342 0.474 0.25 C 0.616 0.157 0.779 0.092 0.962 0.056 C 1.145 0.019 1.333 0 1.525 0 C 1.58 0 1.672 0.011 1.8 0.035 C 1.928 0.058 1.992 0.111 1.992 0.194 C 1.992 0.841 1.988 1.479 1.978 2.108 C 1.969 2.736 1.955 3.37 1.937 4.007 C 2.065 3.564 2.23 3.104 2.432 2.628 C 2.633 2.152 2.881 1.719 3.174 1.331 C 3.467 0.943 3.815 0.624 4.218 0.374 C 4.621 0.125 5.092 0 5.633 0 C 6.091 0 6.491 0.093 6.835 0.277 C 7.178 0.462 7.467 0.707 7.7 1.012 C 7.934 1.317 8.11 1.668 8.229 2.066 C 8.348 2.464 8.408 2.875 8.408 3.3 Z  M 9.37 4.576" fill="rgb(180,175,215)"/></g></g></svg>