<svg width="110" height="33" viewBox="0 0 110 33" fill="none" xmlns="http://www.w3.org/2000/svg">
<g clip-path="url(#clip0)">
<path d="M24.8548 15.7105C24.8548 16.2281 24.7564 16.7666 24.5595 17.3259C24.3625 17.8851 24.09 18.3959 23.742 18.8581C23.394 19.3203 22.9795 19.7016 22.4987 20.002C22.0178 20.3025 21.4935 20.4527 20.9256 20.4527C20.7241 20.4527 20.5204 20.418 20.3143 20.3487C20.1082 20.2793 19.9204 20.1777 19.751 20.0436C19.5815 19.9096 19.4442 19.7501 19.3388 19.5652C19.2335 19.3803 19.1808 19.1723 19.1808 18.9412C19.1808 18.8303 19.2266 18.7356 19.3183 18.657C19.4098 18.5784 19.5106 18.5391 19.6205 18.5391C19.7579 18.5391 19.8746 18.6085 19.9708 18.7472C20.067 18.8858 20.1723 19.036 20.2868 19.1978C20.4013 19.3596 20.5387 19.5098 20.6989 19.6484C20.8592 19.7871 21.0722 19.8564 21.3378 19.8564C21.6675 19.8564 21.9606 19.7432 22.217 19.5167C22.4735 19.2902 22.6887 19.0152 22.8627 18.6916C23.0368 18.3681 23.1696 18.0238 23.2611 17.6586C23.3527 17.2935 23.3986 16.9723 23.3986 16.6949C23.3986 16.3437 23.3527 15.997 23.2611 15.6549C23.1696 15.3129 23.0299 15.0102 22.8422 14.7467C22.6544 14.4833 22.4162 14.2706 22.1278 14.1089C21.8393 13.9471 21.5027 13.8662 21.118 13.8662C20.6692 13.8662 20.2914 14.0188 19.9845 14.3238C19.6777 14.6289 19.4258 15.0194 19.2289 15.4955C19.032 15.9716 18.8809 16.5054 18.7755 17.0971C18.6702 17.6887 18.5924 18.2733 18.542 18.8511C18.4916 19.4289 18.4619 19.9627 18.4527 20.4527C18.4436 20.9426 18.439 21.3309 18.439 21.6174C18.439 22.9578 18.4023 24.1665 18.3291 25.2434C18.2558 26.3204 18.155 27.2933 18.0268 28.1623C17.8986 29.0312 17.7475 29.8008 17.5734 30.471C17.3994 31.1412 17.2117 31.7397 17.0102 32.2667H16.6667V25.6386C16.6667 23.6142 16.6301 21.6013 16.5568 19.5999C16.4835 17.5985 16.4469 15.581 16.4469 13.5473C16.4469 13.3347 16.4904 13.1567 16.5774 13.0135C16.6644 12.8702 16.7789 12.7523 16.9209 12.6598C17.0628 12.5674 17.2254 12.5027 17.4086 12.4658C17.5918 12.4288 17.7796 12.4103 17.9719 12.4103C18.0268 12.4103 18.1184 12.4218 18.2466 12.4449C18.3749 12.4681 18.439 12.5212 18.439 12.6044C18.439 13.2515 18.4344 13.8893 18.4252 14.5179C18.4161 15.1466 18.4023 15.7798 18.384 16.4176C18.5122 15.9739 18.6771 15.514 18.8786 15.0379C19.0801 14.5618 19.3274 14.1297 19.6205 13.7415C19.9136 13.3532 20.2616 13.0343 20.6646 12.7847C21.0676 12.5351 21.5393 12.4103 22.0797 12.4103C22.5376 12.4103 22.9383 12.5028 23.2818 12.6876C23.6252 12.8725 23.9137 13.1174 24.1473 13.4225C24.3808 13.7276 24.5572 14.0788 24.6762 14.4764C24.7953 14.8739 24.8548 15.2852 24.8548 15.7105ZM33.9497 16.5285C33.9497 17.1756 33.8444 17.7765 33.6337 18.3311C33.423 18.8858 33.1254 19.3665 32.7407 19.7733C32.356 20.18 31.8958 20.4989 31.36 20.73C30.8241 20.9611 30.2311 21.0766 29.5808 21.0766C29.0038 21.0766 28.4841 20.968 28.0215 20.7508C27.559 20.5336 27.1629 20.2401 26.8331 19.8703C26.5034 19.5005 26.2516 19.0684 26.0775 18.5738C25.9035 18.0793 25.8165 17.55 25.8165 16.9861C25.8165 16.5147 25.8829 16.0663 26.0157 15.6411C26.1485 15.2158 26.334 14.8207 26.5721 14.4555C26.8102 14.0904 27.0942 13.753 27.4239 13.4433C27.7536 13.1336 28.1108 12.854 28.4955 12.6044L28.6604 12.7292C28.2757 13.1822 27.9734 13.6814 27.7536 14.2267C27.5338 14.7722 27.4239 15.3499 27.4239 15.96C27.4239 16.4037 27.4903 16.8544 27.6231 17.312C27.7559 17.7696 27.9505 18.1878 28.207 18.5669C28.4634 18.9459 28.784 19.2556 29.1687 19.4959C29.5534 19.7363 29.993 19.8564 30.4876 19.8564C30.799 19.8564 31.0921 19.7917 31.3669 19.6623C31.6416 19.5329 31.882 19.3573 32.0881 19.1354C32.2942 18.9135 32.4591 18.6616 32.5827 18.3797C32.7063 18.0977 32.7682 17.8042 32.7682 17.4992C32.7682 17.2034 32.7247 16.9145 32.6376 16.6326C32.5506 16.3506 32.4293 16.0871 32.2736 15.8421C32.1179 15.5972 31.9301 15.3753 31.7103 15.1766C31.4905 14.9778 31.2524 14.8137 30.9959 14.6843C30.8494 14.6104 30.7097 14.5549 30.5769 14.5179C30.4441 14.481 30.2998 14.4394 30.1441 14.3932C30.08 14.3839 30.0113 14.3677 29.9381 14.3446C29.8648 14.3215 29.7961 14.2938 29.732 14.2614C29.6679 14.2291 29.6129 14.1852 29.5671 14.1297C29.5213 14.0742 29.4984 14.0049 29.4984 13.9217C29.4984 13.7553 29.5579 13.6028 29.677 13.4641C29.7961 13.3254 29.938 13.203 30.1029 13.0966C30.2678 12.9903 30.4418 12.9071 30.625 12.847C30.8081 12.787 30.9684 12.757 31.1058 12.757C31.5729 12.757 31.9851 12.8771 32.3423 13.1175C32.6995 13.3578 32.9971 13.6629 33.2352 14.0327C33.4734 14.4024 33.652 14.8091 33.7711 15.2528C33.8902 15.6966 33.9497 16.1218 33.9497 16.5285ZM42.4263 19.0383L42.5499 19.0938C42.2568 19.7039 41.8447 20.1869 41.3135 20.5428C40.7822 20.8987 40.1777 21.0766 39.5 21.0766C38.9413 21.0766 38.4422 20.9056 38.0025 20.5636C37.5629 20.2215 37.1759 19.7732 36.8416 19.2186C36.5073 18.6639 36.2234 18.0376 35.9898 17.3397C35.7563 16.6418 35.5639 15.9323 35.4128 15.2113C35.2617 14.4902 35.1518 13.7946 35.0831 13.1244C35.0144 12.4542 34.9801 11.8695 34.9801 11.3703C34.9801 10.7602 35.0121 10.09 35.0762 9.35975C35.1403 8.62943 35.2456 7.89221 35.3922 7.1481C35.5388 6.40394 35.7288 5.68059 35.9623 4.97804C36.1959 4.27545 36.4799 3.65378 36.8142 3.11304C37.1485 2.57226 37.5354 2.13778 37.9751 1.80961C38.4147 1.48145 38.9184 1.31736 39.4862 1.31736C39.9717 1.31736 40.3655 1.46064 40.6678 1.74719C40.97 2.03375 41.2081 2.38734 41.3822 2.80798C41.5562 3.22857 41.673 3.67459 41.7325 4.14603C41.792 4.61748 41.8218 5.03809 41.8218 5.40787C41.8218 6.40622 41.705 7.3884 41.4715 8.35442C41.2379 9.32044 40.9173 10.231 40.5098 11.086C40.1022 11.9412 39.6236 12.7177 39.0741 13.4156C38.5245 14.1135 37.9338 14.6982 37.3019 15.1697C37.4301 15.789 37.5835 16.3922 37.7621 16.9792C37.9407 17.5662 38.1582 18.0885 38.4147 18.546C38.6711 19.0036 38.9665 19.3734 39.3008 19.6554C39.6351 19.9373 40.0175 20.0783 40.4479 20.0783C40.8784 20.0783 41.2493 19.9905 41.5607 19.8148C41.8722 19.6392 42.1607 19.3803 42.4263 19.0383ZM36.8897 10.5383C36.8805 10.7417 36.8782 10.9913 36.8828 11.2871C36.8874 11.5829 36.9011 11.9088 36.924 12.2647C36.947 12.6206 36.9813 13.0019 37.0271 13.4087C37.0729 13.8154 37.1324 14.2313 37.2057 14.6566C37.8193 14.102 38.3414 13.4872 38.7719 12.8124C39.2023 12.1376 39.5549 11.4096 39.8297 10.6285C40.1045 9.84736 40.3037 9.02464 40.4274 8.16033C40.551 7.29598 40.6128 6.39697 40.6128 5.46333C40.6128 5.34313 40.6105 5.18599 40.6059 4.9919C40.6014 4.79777 40.5853 4.58978 40.5578 4.36792C40.5304 4.14606 40.4914 3.9242 40.4411 3.70234C40.3907 3.48048 40.322 3.2794 40.235 3.09911C40.148 2.91886 40.0381 2.77096 39.9053 2.65541C39.7725 2.53986 39.6145 2.48209 39.4313 2.48209C39.0832 2.48209 38.7787 2.65541 38.5177 3.00207C38.2567 3.34872 38.0323 3.79014 37.8445 4.32633C37.6567 4.86247 37.501 5.45408 37.3774 6.10118C37.2537 6.74827 37.1553 7.36994 37.082 7.96617C37.0088 8.56241 36.9584 9.09625 36.9309 9.5677C36.9034 10.0391 36.8897 10.3627 36.8897 10.5383ZM53.2385 18.4421L53.3346 18.4976C53.1514 18.858 52.9408 19.2047 52.7026 19.5375C52.4645 19.8703 52.1897 20.1661 51.8783 20.425C51.5669 20.6838 51.2189 20.8895 50.8342 21.042C50.4495 21.1945 50.0145 21.2708 49.529 21.2708C48.6498 21.2708 47.9285 21.0674 47.3652 20.6606C46.8019 20.2539 46.328 19.6854 45.9433 18.9551C45.8334 19.0013 45.7258 19.0406 45.6205 19.073C45.5151 19.1054 45.4121 19.14 45.3114 19.177C45.2931 19.3342 45.2747 19.4774 45.2564 19.6068C45.2381 19.7363 45.2197 19.8564 45.2014 19.9673C45.1831 20.0875 45.1602 20.2169 45.1327 20.3556C45.1053 20.4943 45.0595 20.6237 44.9954 20.7438C44.9312 20.864 44.8442 20.9634 44.7343 21.042C44.6244 21.1206 44.4733 21.1599 44.281 21.1599C44.0062 21.1599 43.8138 21.0743 43.704 20.9033C43.594 20.7323 43.507 20.5451 43.4429 20.3417C43.3055 19.898 43.1796 19.3618 43.0651 18.7332C42.9506 18.1047 42.8521 17.4553 42.7697 16.785C42.6873 16.1149 42.6232 15.4516 42.5774 14.7953C42.5316 14.1389 42.5087 13.5566 42.5087 13.0482C42.5087 12.438 42.527 11.7932 42.5636 11.1138C42.6003 10.4344 42.6644 9.74799 42.756 9.05469C42.8476 8.36138 42.9735 7.675 43.1338 6.99553C43.2941 6.31612 43.4979 5.66672 43.7452 5.04736C43.9925 4.42799 44.2878 3.85253 44.6313 3.32099C44.9747 2.78945 45.38 2.32957 45.8471 1.94135C46.0578 1.7657 46.2982 1.61316 46.5684 1.48372C46.8386 1.35433 47.1065 1.28963 47.3721 1.28963C47.482 1.28963 47.608 1.31504 47.75 1.36585C47.8919 1.4167 47.9629 1.51147 47.9629 1.65015C47.9629 1.72409 47.9262 1.81189 47.8529 1.91355C46.5432 3.73468 45.5953 5.66902 45.0091 7.71657C44.4229 9.76415 44.1298 11.9342 44.1298 14.2267C44.1298 15.1696 44.1733 16.0779 44.2604 16.9515C44.3474 17.825 44.4642 18.7379 44.6107 19.69C44.6473 19.2093 44.7 18.694 44.7687 18.1439C44.8374 17.5939 44.9335 17.0508 45.0572 16.5147C45.1808 15.9785 45.3388 15.4632 45.5311 14.9686C45.7235 14.474 45.9616 14.0372 46.2456 13.6582C46.5295 13.2792 46.8615 12.9765 47.2416 12.75C47.6217 12.5235 48.0682 12.4103 48.5811 12.4103C49.1215 12.4103 49.5703 12.5698 49.9275 12.8887C50.2847 13.2076 50.4633 13.6444 50.4633 14.199C50.4633 14.5133 50.4129 14.823 50.3122 15.1281C50.2114 15.4331 50.0763 15.722 49.9069 15.9947C49.7374 16.2674 49.5451 16.5239 49.3298 16.7643C49.1146 17.0046 48.8925 17.2126 48.6635 17.3882C48.3338 17.6471 47.972 17.8967 47.5782 18.137C47.7247 18.4236 47.8896 18.694 48.0728 18.9482C48.256 19.2024 48.4575 19.4243 48.6773 19.6138C48.8971 19.8033 49.1421 19.9535 49.4123 20.0644C49.6825 20.1753 49.9824 20.2308 50.3122 20.2308C50.6052 20.2308 50.8914 20.1823 51.1708 20.0852C51.4502 19.9881 51.7135 19.8587 51.9608 19.697C52.2081 19.5352 52.4393 19.3457 52.6545 19.1284C52.8698 18.9112 53.0644 18.6824 53.2385 18.4421ZM47.908 14.1574C47.45 14.1574 47.0744 14.303 46.7814 14.5942C46.4883 14.8854 46.2479 15.2505 46.0601 15.6896C45.8723 16.1287 45.7281 16.6117 45.6274 17.1387C45.5266 17.6656 45.4441 18.1647 45.38 18.6362C45.8197 18.4605 46.2387 18.2456 46.6371 17.9914C47.0355 17.7372 47.3813 17.4576 47.6744 17.1525C47.9674 16.8474 48.201 16.5216 48.375 16.1749C48.5491 15.8283 48.6361 15.4655 48.6361 15.0865C48.6361 14.8461 48.5743 14.6312 48.4506 14.4417C48.327 14.2522 48.1461 14.1574 47.908 14.1574ZM59.1322 13.3531C59.1322 13.4549 59.0956 13.545 59.0223 13.6236C58.9491 13.7022 58.862 13.7415 58.7613 13.7415C58.6789 13.7415 58.5918 13.716 58.5002 13.6652C58.4087 13.6143 58.3056 13.5565 58.1911 13.4919C58.0767 13.4272 57.9439 13.3694 57.7927 13.3185C57.6416 13.2677 57.4699 13.2422 57.2776 13.2422C56.8288 13.2422 56.4281 13.3832 56.0755 13.6652C55.7228 13.9471 55.4251 14.2961 55.1824 14.7121C54.9397 15.128 54.7542 15.5717 54.626 16.0432C54.4978 16.5147 54.4337 16.9399 54.4337 17.3189C54.4337 17.587 54.4566 17.8481 54.5023 18.1023C54.5482 18.3566 54.6283 18.5877 54.7428 18.7956C54.8573 19.0037 55.0153 19.1701 55.2167 19.2949C55.4182 19.4197 55.6747 19.4821 55.9861 19.4821C56.3158 19.4821 56.6318 19.4197 56.9341 19.2949C57.2363 19.1701 57.5202 19.006 57.7858 18.8026C57.795 18.5068 57.8431 18.1948 57.9301 17.8666C58.0171 17.5384 58.1293 17.2149 58.2667 16.896C58.4041 16.5771 58.5621 16.2743 58.7407 15.9877C58.9193 15.7012 59.1048 15.447 59.2971 15.2251L59.4757 15.336C59.3749 15.6503 59.3017 15.9739 59.2559 16.3067C59.2101 16.6395 59.1871 16.9676 59.1871 17.2912C59.1871 17.624 59.2146 17.9383 59.2696 18.2341C59.3246 18.5299 59.4207 18.7864 59.5581 19.0037C59.6955 19.2209 59.8832 19.3919 60.1214 19.5167C60.3595 19.6415 60.6663 19.7039 61.0419 19.7039C61.4998 19.7039 61.9211 19.5976 62.3058 19.3849C62.6905 19.1723 63.0293 18.9043 63.3225 18.5807L63.4323 18.6362C63.2675 18.9598 63.0522 19.2694 62.7866 19.5652C62.521 19.861 62.2257 20.1268 61.9005 20.3625C61.5754 20.5982 61.2296 20.7854 60.8632 20.9241C60.4969 21.0628 60.1351 21.1321 59.7779 21.1321C59.2742 21.1321 58.862 20.9865 58.5414 20.6953C58.2209 20.4041 58.0011 20.0367 57.882 19.593C57.4973 19.9812 57.0692 20.3071 56.5975 20.5705C56.1258 20.834 55.6289 20.9657 55.1068 20.9657C54.7222 20.9657 54.381 20.8941 54.0834 20.7508C53.7857 20.6075 53.5361 20.4157 53.3346 20.1754C53.1331 19.935 52.9797 19.6508 52.8744 19.3226C52.769 18.9944 52.7164 18.6501 52.7164 18.2895C52.7164 17.8735 52.7828 17.446 52.9156 17.0069C53.0484 16.5678 53.2316 16.1357 53.4651 15.7105C53.6987 15.2852 53.9757 14.8831 54.2963 14.5041C54.6169 14.1251 54.9672 13.7923 55.3473 13.5057C55.7274 13.2192 56.1281 12.9927 56.5494 12.8263C56.9707 12.6599 57.4011 12.5767 57.8408 12.5767C57.9416 12.5767 58.0652 12.5882 58.2117 12.6114C58.3583 12.6344 58.5003 12.6737 58.6377 12.7292C58.775 12.7847 58.8918 12.8632 58.9879 12.9649C59.0841 13.0666 59.1322 13.196 59.1322 13.3531ZM70.0543 19.0383L70.1779 19.0938C69.8848 19.7039 69.4727 20.1869 68.9415 20.5428C68.4102 20.8987 67.8057 21.0766 67.128 21.0766C66.5693 21.0766 66.0701 20.9056 65.6305 20.5636C65.1909 20.2215 64.8039 19.7732 64.4696 19.2186C64.1353 18.6639 63.8514 18.0376 63.6178 17.3397C63.3843 16.6418 63.1919 15.9323 63.0408 15.2113C62.8897 14.4902 62.7797 13.7946 62.711 13.1244C62.6424 12.4542 62.6081 11.8695 62.6081 11.3703C62.6081 10.7602 62.6401 10.09 62.7042 9.35975C62.7683 8.62943 62.8736 7.89221 63.0202 7.1481C63.1668 6.40394 63.3568 5.68059 63.5903 4.97804C63.8239 4.27545 64.1078 3.65378 64.4421 3.11304C64.7764 2.57226 65.1634 2.13778 65.603 1.80961C66.0427 1.48145 66.5464 1.31736 67.1142 1.31736C67.5997 1.31736 67.9935 1.46064 68.2958 1.74719C68.598 2.03375 68.8361 2.38734 69.0102 2.80798C69.1842 3.22857 69.301 3.67459 69.3605 4.14603C69.42 4.61748 69.4498 5.03809 69.4498 5.40787C69.4498 6.40622 69.333 7.3884 69.0995 8.35442C68.8659 9.32044 68.5453 10.231 68.1378 11.086C67.7302 11.9412 67.2516 12.7177 66.7021 13.4156C66.1525 14.1135 65.5618 14.6982 64.9299 15.1697C65.0581 15.789 65.2115 16.3922 65.3901 16.9792C65.5687 17.5662 65.7862 18.0885 66.0426 18.546C66.2991 19.0036 66.5945 19.3734 66.9288 19.6554C67.2631 19.9373 67.6455 20.0783 68.0759 20.0783C68.5064 20.0783 68.8773 19.9905 69.1887 19.8148C69.5002 19.6392 69.7887 19.3803 70.0543 19.0383ZM64.5177 10.5383C64.5085 10.7417 64.5062 10.9913 64.5108 11.2871C64.5154 11.5829 64.5291 11.9088 64.552 12.2647C64.5749 12.6206 64.6093 13.0019 64.6551 13.4087C64.7009 13.8154 64.7604 14.2313 64.8336 14.6566C65.4473 14.102 65.9694 13.4872 66.3998 12.8124C66.8303 12.1376 67.1829 11.4096 67.4577 10.6285C67.7325 9.84736 67.9317 9.02464 68.0554 8.16033C68.179 7.29598 68.2408 6.39697 68.2408 5.46333C68.2408 5.34313 68.2385 5.18599 68.2339 4.9919C68.2294 4.79777 68.2133 4.58978 68.1858 4.36792C68.1583 4.14606 68.1194 3.9242 68.0691 3.70234C68.0187 3.48048 67.95 3.2794 67.863 3.09911C67.776 2.91886 67.6661 2.77096 67.5333 2.65541C67.4005 2.53986 67.2425 2.48209 67.0593 2.48209C66.7112 2.48209 66.4067 2.65541 66.1457 3.00207C65.8847 3.34872 65.6603 3.79014 65.4725 4.32633C65.2847 4.86247 65.129 5.45408 65.0054 6.10118C64.8817 6.74827 64.7833 7.36994 64.71 7.96617C64.6368 8.56241 64.5864 9.09625 64.5589 9.5677C64.5314 10.0391 64.5177 10.3627 64.5177 10.5383ZM78.6545 18.5807L78.7644 18.6362C78.5263 18.9875 78.2401 19.3156 77.9058 19.6207C77.5715 19.9258 77.2051 20.1892 76.8067 20.411C76.4083 20.6329 75.9916 20.8085 75.5565 20.938C75.1215 21.0674 74.6842 21.1321 74.2445 21.1321C73.6217 21.1321 73.0401 21.0512 72.4997 20.8894C71.9593 20.7277 71.4876 20.4804 71.0846 20.1476C70.6816 19.8148 70.3657 19.3965 70.1367 18.8927C69.9077 18.3889 69.7932 17.7996 69.7932 17.1248C69.7932 16.4592 69.9146 15.8376 70.1573 15.2598C70.4 14.6821 70.7343 14.1782 71.1602 13.7484C71.5861 13.3185 72.0876 12.9788 72.6646 12.7292C73.2416 12.4796 73.8598 12.3549 74.5192 12.3549C74.8307 12.3549 75.1215 12.3987 75.3917 12.4865C75.6618 12.5743 75.8977 12.7038 76.0992 12.8748C76.3007 13.0458 76.4587 13.2561 76.5732 13.5057C76.6876 13.7553 76.7449 14.0419 76.7449 14.3654C76.7449 14.7536 76.667 15.0957 76.5113 15.3915C76.3556 15.6873 76.1496 15.9462 75.8931 16.168C75.6367 16.3899 75.3458 16.5748 75.0207 16.7227C74.6955 16.8706 74.3567 16.9907 74.004 17.0832C73.6514 17.1756 73.3034 17.2427 72.9599 17.2843C72.6165 17.3258 72.3028 17.3466 72.0189 17.3466H71.6891C71.8082 18.1878 72.1379 18.8303 72.6783 19.274C73.2187 19.7178 73.9651 19.9396 74.9177 19.9396C75.5955 19.9396 76.2572 19.8194 76.9029 19.5791C77.5486 19.3388 78.1325 19.006 78.6545 18.5807ZM71.6479 16.6117V16.9306H71.9914C72.3211 16.9306 72.66 16.8775 73.008 16.7712C73.3561 16.6649 73.6697 16.5077 73.9491 16.2998C74.2285 16.0917 74.4597 15.8352 74.6429 15.5302C74.8261 15.2251 74.9177 14.8785 74.9177 14.4902C74.9177 14.1112 74.8375 13.7969 74.6772 13.5473C74.517 13.2977 74.2399 13.1729 73.8461 13.1729C73.4431 13.1729 73.1019 13.2954 72.8226 13.5404C72.5432 13.7853 72.3165 14.0858 72.1425 14.4417C71.9685 14.7976 71.8426 15.172 71.7647 15.5649C71.6869 15.9577 71.6479 16.3067 71.6479 16.6117ZM88.5325 18.5807L88.6561 18.6362C88.4912 19.006 88.2829 19.3388 88.031 19.6346C87.7792 19.9304 87.5067 20.1823 87.2136 20.3903C86.9205 20.5982 86.6182 20.76 86.3069 20.8756C85.9954 20.9911 85.6977 21.0489 85.4138 21.0489C84.8826 21.0489 84.4338 20.9565 84.0675 20.7716C83.7011 20.5867 83.4034 20.3371 83.1744 20.0228C82.9455 19.7085 82.7806 19.3388 82.6799 18.9135C82.5791 18.4883 82.5287 18.0353 82.5287 17.5546C82.5287 17.1849 82.5562 16.8012 82.6112 16.4038C82.6662 16.0063 82.744 15.6226 82.8447 15.2528C82.8631 15.1974 82.8814 15.1304 82.8997 15.0518C82.9181 14.9732 82.9272 14.9062 82.9272 14.8507C82.9272 14.8045 82.8997 14.7676 82.8447 14.7398C82.6891 14.6843 82.5242 14.6312 82.3502 14.5804C82.1761 14.5295 82.0044 14.4717 81.835 14.407C81.6656 14.3423 81.5053 14.2683 81.3541 14.1852C81.203 14.102 81.0725 13.9957 80.9626 13.8662C80.9535 14.4209 80.8619 14.9824 80.6878 15.551C80.5138 16.1195 80.2825 16.6649 79.994 17.1872C79.7055 17.7095 79.369 18.1971 78.9843 18.65C78.5996 19.103 78.192 19.4959 77.7615 19.8287L77.6242 19.69C77.8898 19.3942 78.1325 19.0429 78.3523 18.6362C78.5721 18.2294 78.7599 17.8042 78.9156 17.3605C79.0713 16.9168 79.1926 16.4684 79.2796 16.0155C79.3666 15.5625 79.4101 15.1373 79.4101 14.7398C79.4101 14.5365 79.3918 14.3446 79.3552 14.1643C79.3186 13.9841 79.2796 13.8108 79.2384 13.6443C79.1972 13.478 79.1582 13.3185 79.1216 13.166C79.085 13.0134 79.0667 12.8586 79.0667 12.7015C79.0667 12.4426 79.1491 12.2393 79.314 12.0914C79.4789 11.9435 79.6895 11.8695 79.946 11.8695C80.0833 11.8695 80.1887 11.9088 80.262 11.9874C80.3352 12.066 80.3993 12.1607 80.4543 12.2716C80.5092 12.3826 80.5734 12.4981 80.6466 12.6183C80.7199 12.7384 80.8252 12.8401 80.9626 12.9233C81.1366 13.025 81.3564 13.099 81.622 13.1452C81.8876 13.1914 82.167 13.233 82.4601 13.27C82.7532 13.3069 83.0463 13.3439 83.3393 13.3809C83.6324 13.4179 83.8957 13.4803 84.1293 13.5681C84.3628 13.656 84.5529 13.7761 84.6994 13.9286C84.846 14.0812 84.9193 14.2868 84.9193 14.5457C84.9193 14.6751 84.9078 14.8022 84.8849 14.927C84.862 15.0518 84.8276 15.1697 84.7819 15.2806C84.672 15.6688 84.5781 16.064 84.5002 16.4661C84.4224 16.8683 84.3835 17.2681 84.3835 17.6655C84.3835 18.0076 84.4087 18.3196 84.459 18.6016C84.5094 18.8835 84.6033 19.1261 84.7407 19.3295C84.8781 19.5329 85.0612 19.69 85.2902 19.801C85.5192 19.9119 85.8123 19.9673 86.1694 19.9673C86.6824 19.9673 87.1311 19.8402 87.5158 19.5861C87.9005 19.3318 88.2394 18.9967 88.5325 18.5807ZM96.8442 18.5807L96.9267 18.6362C96.7252 18.9782 96.4893 19.2972 96.2191 19.593C95.9489 19.8888 95.6512 20.1476 95.3261 20.3694C95.001 20.5913 94.6506 20.7646 94.2752 20.8894C93.8996 21.0142 93.5104 21.0766 93.1073 21.0766C92.512 21.0766 91.9877 20.9749 91.5343 20.7716C91.081 20.5682 90.6894 20.2932 90.3597 19.9466C90.03 19.5999 89.7552 19.1955 89.5354 18.7332C89.3156 18.271 89.1416 17.788 89.0133 17.2843C88.8851 16.7805 88.7935 16.2651 88.7385 15.7382C88.6836 15.2113 88.6561 14.7074 88.6561 14.2267C88.6561 13.783 88.6744 13.3278 88.7111 12.861C88.7477 12.3941 88.8027 11.9157 88.876 11.4258C88.592 11.435 88.3149 11.4397 88.0448 11.4397C87.7746 11.4397 87.5067 11.4397 87.2411 11.4397C87.067 11.4397 86.8701 11.435 86.6503 11.4258C86.4305 11.4166 86.2244 11.3796 86.0321 11.3148C85.8397 11.2501 85.6795 11.1531 85.5513 11.0237C85.423 10.8943 85.3589 10.7047 85.3589 10.4552C85.3589 10.3165 85.3841 10.2056 85.4345 10.1224C85.4848 10.0392 85.5535 9.9768 85.6405 9.93518C85.7275 9.89357 85.8283 9.86584 85.9428 9.852C86.0572 9.83812 86.174 9.83117 86.2931 9.83117C86.4305 9.83117 86.7556 9.85428 87.2685 9.90049C87.7814 9.9467 88.3997 9.99755 89.1232 10.0531C89.3522 8.96224 89.6475 7.88991 90.0093 6.83607C90.3711 5.78223 90.781 4.82085 91.239 3.95195H91.4313C91.1382 4.95953 90.8794 5.97638 90.655 7.0025C90.4307 8.02857 90.2635 9.06853 90.1536 10.1224C90.8222 10.1686 91.5114 10.2079 92.2212 10.2402C92.9311 10.2726 93.6249 10.2887 94.3026 10.2887C95.3009 10.2887 96.1115 10.2795 96.7343 10.261C97.3571 10.2425 97.8471 10.2194 98.2044 10.1917C98.6256 10.1547 98.9416 10.1178 99.1522 10.0808L99.2073 10.3165C98.6577 10.4459 98.0303 10.5684 97.3251 10.6839C96.6198 10.7995 95.8688 10.9012 95.072 10.989C94.2751 11.0768 93.4509 11.1531 92.5991 11.2178C91.7473 11.2825 90.9001 11.3333 90.0574 11.3703C90.0391 11.5552 90.03 11.7424 90.03 11.9319C90.03 12.1214 90.03 12.3086 90.03 12.4935C90.03 12.9372 90.0506 13.4271 90.0918 13.9633C90.133 14.4995 90.2085 15.0379 90.3185 15.5787C90.4284 16.1195 90.5772 16.6464 90.765 17.1594C90.9527 17.6725 91.2 18.1254 91.5068 18.5183C91.8137 18.9112 92.1823 19.2278 92.6128 19.4682C93.0433 19.7085 93.5516 19.8287 94.1377 19.8287C94.6781 19.8287 95.1658 19.7085 95.6009 19.4682C96.036 19.2278 96.4504 18.932 96.8442 18.5807Z" fill="#B4AFD7"/>
<path d="M7.829 21.7152C5.76553 20.6068 4.98183 18.0161 6.07998 15.9335C7.17813 13.8509 9.74494 13.0599 11.8084 14.1683C13.8718 15.2766 14.6555 17.8673 13.5574 19.9499C12.4593 22.0325 9.8924 22.8235 7.829 21.7152Z" fill="#B4AFD7"/>
<path d="M15.0353 8.04822C12.9719 6.93986 12.1881 4.34919 13.2863 2.26661C14.3844 0.183948 16.9512 -0.607033 19.0147 0.501325C21.0782 1.60968 21.8619 4.20036 20.7637 6.28294C19.6656 8.3656 17.0988 9.15658 15.0353 8.04822Z" fill="#B4AFD7"/>
<path d="M2.24575 9.84827C0.182276 8.73991 -0.601418 6.14924 0.496729 4.06665C1.59488 1.984 4.16168 1.19302 6.22515 2.30137C8.28862 3.40973 9.07232 6.00041 7.97417 8.08306C6.87602 10.1657 4.30922 10.9566 2.24575 9.84827Z" fill="#B4AFD7"/>
<path d="M105.322 17.2986C105.789 16.0385 107.182 15.3981 108.43 15.8694C109.679 16.3406 110.313 17.7461 109.847 19.0062C109.38 20.2662 107.987 20.9067 106.739 20.4354C105.49 19.9642 104.856 18.5586 105.322 17.2986Z" fill="#B4AFD7"/>
<path d="M97.7573 13.9951C98.2242 12.7351 99.6168 12.0947 100.865 12.5659C102.114 13.0371 102.748 14.4427 102.281 15.7027C101.814 16.9628 100.422 17.6032 99.1734 17.132C97.925 16.6608 97.2904 15.2552 97.7573 13.9951Z" fill="#B4AFD7"/>
<path d="M103.938 9.62772C104.405 8.36764 105.798 7.72719 107.046 8.19847C108.294 8.66968 108.929 10.0752 108.462 11.3353C107.995 12.5953 106.603 13.2358 105.354 12.7646C104.106 12.2933 103.471 10.8877 103.938 9.62772Z" fill="#B4AFD7"/>
</g>
<defs>
<clipPath id="clip0">
<rect width="110" height="32.2667" fill="white"/>
</clipPath>
</defs>
</svg>
