<?xml version="1.0" encoding="UTF-8" standalone="no"?><!-- Generator: Gravit.io --><svg xmlns="http://www.w3.org/2000/svg" xmlns:xlink="http://www.w3.org/1999/xlink" style="isolation:isolate" viewBox="0 0 2133 2152.594" width="2133pt" height="2152.594pt"><defs><clipPath id="_clipPath_3fyoR5jEald0V1H59mCcGK3qOu045sED"><rect width="2133" height="2152.594"/></clipPath></defs><g clip-path="url(#_clipPath_3fyoR5jEald0V1H59mCcGK3qOu045sED)"><path d=" M 34.531 1963.656 L 30.938 1960.5 L 33.188 1948.25 Q 100.245 1948.304 119.438 1948.25 C 134.438 1948.25 135.844 1963.547 130.375 1970.5 C 120.938 1984.078 49.75 2074.02 48.875 2075.125 C 47.391 2077.195 47.82 2080.094 50.625 2080.5 Q 52.703 2080.742 112.5 2080.5 L 116.719 2084.719 L 114.5 2097 L 7.5 2097 L 4.125 2091.125 Q 95.047 1971.453 96 1970.5 C 97.547 1968.406 97.156 1963.703 93.75 1963.656 Q 89.656 1963.547 34.531 1963.656 Z  M 142.125 2077.5 C 142.547 2074.906 160.682 1967.643 162.703 1963.656 C 168.313 1952 176.672 1949.016 188.508 1948.711 Q 198.094 1948.594 254.531 1948.25 L 258.961 1952.93 L 256.57 1963.656 Q 207.457 1963.688 201.375 1963.656 C 197.789 1963.688 194.531 1966.25 193.992 1968.82 Q 193.535 1971.281 186.117 2011.219 L 235.406 2011.219 L 238.781 2014.875 L 236.602 2026.055 L 183.516 2026.055 Q 176.408 2069.156 175.447 2075.125 C 175.096 2077.805 178.523 2080.424 180.859 2080.5 Q 184.656 2080.547 231.398 2080.5 L 234.773 2083.852 L 233.086 2097 Q 167.859 2097 159.398 2097 C 146.355 2096.859 141.627 2080.178 142.125 2077.5 Z  M 265.177 2077.5 C 265.599 2074.906 283.734 1967.643 285.755 1963.656 C 291.365 1952 299.724 1949.016 311.56 1948.711 Q 321.146 1948.594 377.583 1948.25 L 382.013 1952.93 L 379.622 1963.656 Q 330.509 1963.687 324.427 1963.656 C 320.841 1963.687 317.583 1966.25 317.044 1968.82 Q 316.587 1971.281 309.169 2011.219 L 358.458 2011.219 L 361.833 2014.875 L 359.654 2026.055 L 306.568 2026.055 Q 299.46 2069.156 298.499 2075.125 C 298.148 2077.805 301.576 2080.424 303.911 2080.5 Q 307.708 2080.547 354.451 2080.5 L 357.826 2083.852 L 356.138 2097 Q 290.911 2097 282.451 2097 C 269.408 2096.859 264.679 2080.178 265.177 2077.5 Z  M 483.715 2149.031 L 518.836 1949.273 Q 582.414 1948.992 594.5 1949.273 C 606.586 1949.555 625.781 1957.219 639.645 1973.25 C 667.969 2008.688 649.5 2096.125 565 2097.141 Q 556.762 2097.109 525.375 2097 L 515.438 2152.406 L 486.656 2152.594 L 483.715 2149.031 Z  M 528 2080.188 L 549 1963.656 Q 570.938 1963.656 586.688 1963.656 C 602.438 1963.656 615 1981.688 616.688 1995.375 C 624.375 2065.313 575.227 2080.188 569.438 2080.188 Q 549.844 2080.195 528 2080.188 Z  M 662.484 2092.57 L 687.575 1949.235 Q 733.887 1949.238 742.642 1949.235 C 758.25 1949.688 771.937 1946.312 788.75 1965.844 C 800.625 1980.284 800.5 2030 748.002 2031.627 C 749.777 2034.902 760.538 2054.754 780.219 2091.125 L 776.672 2097 L 745.5 2097 L 707.219 2023.945 L 694.244 2097 L 666.466 2097 L 662.484 2092.57 Z  M 710.156 2018.25 L 707.695 2020.547 L 717.539 1964.508 Q 736.162 1964.508 747.625 1964.508 C 757.531 1964.625 764.772 1972.826 766 1982.787 C 768.867 2017.547 745.494 2018.25 741.281 2018.25 Q 726.054 2018.256 710.156 2018.25 Z  M 814.594 2097 L 810.469 2092.57 L 836.156 1949.273 L 864.563 1949.235 L 867.688 1952.313 L 842.531 2097 L 814.594 2097 Z  M 857.438 1907.812 C 835 1907.812 833.75 1940.312 857.438 1940.312 C 880.625 1940.312 879.875 1907.812 857.438 1907.812 Z  M 875.742 2097 L 871.125 2092.57 Q 893.086 1968.797 894.188 1962.563 C 895.656 1954.094 904.16 1947.41 909.352 1946.414 C 927.773 1943.121 935.414 1959.188 936.375 1962.563 Q 937.098 1965.051 961.313 2048.438 Q 1019.504 1961.063 1023 1955.813 C 1025.578 1951.781 1032.938 1945.875 1043.25 1946.094 C 1058.719 1946.469 1061.5 1959.102 1060.313 1964.508 Q 1060.047 1966.031 1036.805 2097 L 1011.305 2097 L 1006.523 2092.57 L 1025.344 1983.633 L 1024.063 1983.633 L 1020.406 1987.688 L 947.25 2098.688 L 943.559 2098.688 L 941.414 2097.486 L 907.063 1985.625 L 905.063 1987.281 L 886.242 2097 L 875.742 2097 Z  M 1070.473 2077.992 C 1070.895 2075.398 1089.029 1968.135 1091.051 1964.148 C 1096.66 1952.492 1105.02 1949.508 1116.856 1949.203 Q 1126.442 1949.086 1182.879 1948.742 L 1187.309 1953.422 L 1184.918 1964.148 Q 1135.805 1964.18 1129.723 1964.148 C 1126.137 1964.18 1122.879 1966.742 1122.34 1969.312 Q 1121.883 1971.773 1114.465 2011.711 L 1163.754 2011.711 L 1167.129 2015.367 L 1164.949 2026.547 L 1111.863 2026.547 Q 1104.756 2069.648 1103.795 2075.617 C 1103.443 2078.297 1106.871 2080.916 1109.207 2080.992 Q 1113.004 2081.039 1159.746 2080.992 L 1163.121 2084.344 L 1161.434 2097 Q 1096.207 2097 1087.746 2097 C 1074.703 2096.859 1069.975 2080.67 1070.473 2077.992 Z  M 1443.797 1967.906 Q 1443.803 1969.887 1443.797 1973.25 Q 1437.095 1977.658 1433.531 1980 C 1420.031 1958.766 1363.5 1937.672 1338.5 2006.875 C 1336.266 2013.469 1334.531 2027.109 1335 2045.438 C 1336.5 2082.375 1378.406 2100.094 1419.5 2067.375 Q 1422.396 2070.742 1426.992 2076.375 Q 1426.992 2079.914 1426.992 2081.625 C 1408.781 2098.594 1372.219 2107.875 1338.5 2092.57 C 1332 2089.406 1305.25 2077.375 1303.102 2032.102 C 1302.563 2005.781 1320.521 1950.961 1381.75 1944.492 C 1420.688 1940.438 1438.5 1960.594 1443.797 1967.906 Z  M 1525.129 2063.25 L 1530.375 2097 L 1556.625 2097 L 1559.766 2092.566 Q 1538.199 1959.793 1537.828 1957.5 C 1537.328 1954.109 1533.75 1942.828 1523.25 1943.109 C 1517.672 1943.203 1510.063 1944.156 1505.109 1953.422 Q 1503.387 1956.859 1435.359 2092.566 L 1439.297 2097 L 1450.547 2097 L 1467.591 2063.25 L 1525.129 2063.25 Z  M 1522.622 2047.125 L 1512.188 1980 L 1510.375 1978.531 L 1475.734 2047.125 L 1522.622 2047.125 Z  M 1566.432 2148.641 L 1601.553 1948.883 Q 1665.132 1948.602 1677.217 1948.883 C 1689.303 1949.164 1708.499 1956.828 1722.362 1972.859 C 1750.686 2008.297 1732.217 2095.734 1647.717 2096.75 Q 1639.479 2096.719 1608.092 2096.609 L 1598.155 2152.016 L 1569.374 2152.203 L 1566.432 2148.641 Z  M 1610.717 2079.797 L 1631.717 1963.266 Q 1653.655 1963.266 1669.405 1963.266 C 1685.155 1963.266 1697.717 1981.297 1699.405 1994.984 C 1707.092 2064.922 1657.944 2079.797 1652.155 2079.797 Q 1632.561 2079.805 1610.717 2079.797 Z  M 1753.594 2097 L 1749.469 2092.57 L 1775.156 1949.273 L 1803.562 1949.235 L 1806.687 1952.313 L 1781.531 2097 L 1753.594 2097 Z  M 1796.438 1907.812 C 1774 1907.812 1772.75 1940.312 1796.438 1940.312 C 1819.625 1940.312 1818.875 1907.812 1796.438 1907.812 Z  M 1846.406 2097 L 1843.313 2092.566 L 1865.813 1964.391 L 1834.547 1964.508 L 1830.469 1960.5 L 1832.625 1949.273 L 1933 1949.273 L 1935.625 1952.313 L 1933.563 1964.508 L 1898.063 1964.508 L 1874.75 2097 L 1846.406 2097 Z  M 1997.129 2063.25 L 2002.375 2097 L 2028.625 2097 L 2031.766 2092.566 Q 2010.199 1959.793 2009.828 1957.5 C 2009.328 1954.109 2005.75 1942.828 1995.25 1943.109 C 1989.672 1943.203 1982.063 1944.156 1977.109 1953.422 Q 1975.387 1956.859 1907.359 2092.566 L 1911.297 2097 L 1922.547 2097 L 1939.591 2063.25 L 1997.129 2063.25 Z  M 1994.622 2047.125 L 1984.188 1980 L 1982.375 1978.531 L 1947.734 2047.125 L 1994.622 2047.125 Z  M 2087.156 1874.602 L 2115.703 1874.602 L 2119.852 1878.539 Q 2085.922 2063.004 2084.344 2071.594 C 2083.688 2076 2085.945 2080.441 2088 2080.5 Q 2089.973 2080.504 2110.594 2080.5 L 2113.875 2084.719 L 2111.625 2097 Q 2076.52 2097.004 2074.125 2097 C 2060.156 2097 2053.969 2081.918 2053.406 2079.797 C 2052.387 2075.906 2052.527 2069.156 2053.406 2063.25 Q 2054.262 2058.469 2087.156 1874.602 Z  M 1066.5 0 L 1466 690.5 L 1363.5 691 L 1066.5 178 L 770.5 691 L 667 690.5 L 1066.5 0 Z  M 1369 782.5 L 596.5 1848 L 2133 1847.5 L 1477 708.5 L 657.5 708 L 0 1847.5 L 574.5 1848 L 639 1759.5 L 155 1758.5 C 155.296 1757.091 724.087 782.052 727.5 783 L 1369 782.5 Z  M 1430.5 808 L 1979 1758.5 L 742.5 1759 L 1430.5 808 L 1430.5 808 Z " fill-rule="evenodd" fill="rgb(0,0,0)"/></g></svg>