<svg width="22" height="22" viewBox="0 0 22 22" fill="none" xmlns="http://www.w3.org/2000/svg">
<path fill-rule="evenodd" clip-rule="evenodd" d="M1.86247 0.319511L0.471904 1.71008L4.46876 5.70694C4.09644 6.01551 3.72797 6.34689 3.36355 6.69929C2.5482 7.48778 1.81056 8.32958 1.1612 9.17173C0.76936 9.6799 0.491158 10.0797 0.338838 10.3178L0 10.8476L0.338838 11.3774C0.491158 11.6156 0.76936 12.0153 1.1612 12.5235C1.81056 13.3656 2.5482 14.2074 3.36355 14.9959C5.75353 17.3071 8.31805 18.7139 11 18.7139C12.6921 18.7139 14.3375 18.1539 15.9219 17.16L20.1375 21.3757L21.5281 19.9851L1.86247 0.319511ZM14.4854 15.7235L12.998 14.2362C12.4124 14.5822 11.7294 14.7807 11 14.7807C8.8278 14.7807 7.06688 13.0198 7.06688 10.8476C7.06688 10.1182 7.26543 9.43517 7.61144 8.84961L5.867 7.10517C5.48608 7.41236 5.10698 7.74902 4.73064 8.11296C3.98905 8.83011 3.31309 9.60151 2.71856 10.3726C2.59015 10.5391 2.4715 10.698 2.36302 10.8476C2.4715 10.9972 2.59015 11.1561 2.71856 11.3227C3.31309 12.0937 3.98905 12.8651 4.73064 13.5823C6.78909 15.5729 8.93012 16.7473 11 16.7473C12.1486 16.7473 13.3192 16.3856 14.4854 15.7235ZM9.10005 10.3382C9.0566 10.5007 9.03344 10.6714 9.03344 10.8476C9.03344 11.9337 9.9139 12.8142 11 12.8142C11.1762 12.8142 11.3469 12.791 11.5094 12.7476L9.10005 10.3382Z" fill="black"/>
<path d="M18.9627 14.6735L17.5721 13.2829C18.1957 12.6526 18.7688 11.9875 19.2814 11.3227C19.4098 11.1561 19.5285 10.9972 19.637 10.8476C19.5285 10.698 19.4098 10.5391 19.2814 10.3726C18.6869 9.60151 18.011 8.83011 17.2694 8.11296C15.2109 6.12233 13.0699 4.94792 11 4.94792C10.4864 4.94792 9.96848 5.02022 9.4485 5.15934L7.89298 3.60382C8.90816 3.19903 9.945 2.98136 11 2.98136C13.6819 2.98136 16.2465 4.38806 18.6364 6.69929C19.4518 7.48778 20.1894 8.32958 20.8388 9.17173C21.2306 9.6799 21.5088 10.0797 21.6612 10.3178L22 10.8476L21.6612 11.3774C21.5088 11.6156 21.2306 12.0153 20.8388 12.5235C20.2772 13.2518 19.6495 13.9799 18.9627 14.6735Z" fill="black"/>
</svg>
