<svg width="22" height="22" viewBox="0 0 22 22" fill="none" xmlns="http://www.w3.org/2000/svg">
<path fill-rule="evenodd" clip-rule="evenodd" d="M16.7071 15.2929L15.2929 16.7071L13.032 14.4462C12.4365 14.7981 11.7418 15 11 15C10.2582 15 9.56355 14.7981 8.96803 14.4462L6.70711 16.7071L5.29289 15.2929L7.55382 13.032C7.20193 12.4365 7 11.7418 7 11C7 10.2582 7.20193 9.56355 7.55382 8.96803L5.29289 6.70711L6.70711 5.29289L8.96803 7.55382C9.56355 7.20193 10.2582 7 11 7C11.7418 7 12.4365 7.20193 13.032 7.55382L15.2929 5.29289L16.7071 6.70711L14.4462 8.96803C14.7981 9.56355 15 10.2582 15 11C15 11.7418 14.7981 12.4365 14.4462 13.032L16.7071 15.2929ZM13 11C13 12.1046 12.1046 13 11 13C9.89543 13 9 12.1046 9 11C9 9.89543 9.89543 9 11 9C12.1046 9 13 9.89543 13 11Z" fill="black"/>
<path fill-rule="evenodd" clip-rule="evenodd" d="M19.1818 1H2.81818C1.81403 1 1 1.89543 1 3V19C1 20.1046 1.81403 21 2.81818 21H4V22H6V21H16V22H18V21H19.1818C20.186 21 21 20.1046 21 19V3C21 1.89543 20.186 1 19.1818 1ZM3 19V3H19V5H18V7H19V15H18V17H19V19H3Z" fill="black"/>
</svg>
