<svg width="22" height="22" viewBox="0 0 22 22" fill="none" xmlns="http://www.w3.org/2000/svg">
<path fill-rule="evenodd" clip-rule="evenodd" d="M13.9263 16.0476C12.5972 16.9637 10.9862 17.5 9.25 17.5C4.69365 17.5 1 13.8063 1 9.25C1 4.69365 4.69365 1 9.25 1C13.8063 1 17.5 4.69365 17.5 9.25C17.5 10.9862 16.9637 12.5972 16.0476 13.9263L21.5607 19.4393L19.4393 21.5607L13.9263 16.0476ZM9.25 14.5C12.1495 14.5 14.5 12.1495 14.5 9.25C14.5 6.3505 12.1495 4 9.25 4C6.3505 4 4 6.3505 4 9.25C4 12.1495 6.3505 14.5 9.25 14.5Z" fill="black"/>
</svg>
