<svg width="22" height="22" viewBox="0 0 22 22" fill="none" xmlns="http://www.w3.org/2000/svg">
<path fill-rule="evenodd" clip-rule="evenodd" d="M7.06688 10.8662C7.06688 13.0385 8.8278 14.7994 11 14.7994C13.1722 14.7994 14.9331 13.0385 14.9331 10.8662C14.9331 8.69404 13.1722 6.93312 11 6.93312C8.8278 6.93312 7.06688 8.69404 7.06688 10.8662ZM12.9666 10.8662C12.9666 11.9524 12.0861 12.8328 11 12.8328C9.9139 12.8328 9.03344 11.9524 9.03344 10.8662C9.03344 9.78015 9.9139 8.89969 11 8.89969C12.0861 8.89969 12.9666 9.78015 12.9666 10.8662Z" fill="black"/>
<path fill-rule="evenodd" clip-rule="evenodd" d="M11 3C13.6819 3 16.2465 4.40671 18.6364 6.71793C19.4518 7.50642 20.1894 8.34822 20.8388 9.19037C21.2306 9.69854 21.5088 10.0983 21.6612 10.3365L22 10.8662L21.6612 11.396C21.5088 11.6342 21.2306 12.034 20.8388 12.5421C20.1894 13.3843 19.4518 14.2261 18.6364 15.0146C16.2465 17.3258 13.6819 18.7325 11 18.7325C8.31805 18.7325 5.75353 17.3258 3.36355 15.0146C2.5482 14.2261 1.81056 13.3843 1.1612 12.5421C0.76936 12.034 0.491158 11.6342 0.338838 11.396L0 10.8662L0.338838 10.3365C0.491158 10.0983 0.76936 9.69854 1.1612 9.19037C1.81056 8.34822 2.5482 7.50642 3.36355 6.71793C5.75353 4.40671 8.31805 3 11 3ZM19.2814 10.3912C18.6869 9.62016 18.011 8.84876 17.2694 8.1316C15.2109 6.14097 13.0699 4.96656 11 4.96656C8.93012 4.96656 6.78909 6.14097 4.73064 8.1316C3.98905 8.84876 3.31309 9.62016 2.71856 10.3912C2.59015 10.5577 2.4715 10.7166 2.36302 10.8662C2.4715 11.0159 2.59015 11.1748 2.71856 11.3413C3.31309 12.1123 3.98905 12.8837 4.73064 13.6009C6.78909 15.5915 8.93012 16.7659 11 16.7659C13.0699 16.7659 15.2109 15.5915 17.2694 13.6009C18.011 12.8837 18.6869 12.1123 19.2814 11.3413C19.4098 11.1748 19.5285 11.0159 19.637 10.8662C19.5285 10.7166 19.4098 10.5577 19.2814 10.3912Z" fill="black"/>
</svg>
