<?xml version="1.0" encoding="UTF-8" standalone="no"?><!-- Generator: Gravit.io --><svg xmlns="http://www.w3.org/2000/svg" xmlns:xlink="http://www.w3.org/1999/xlink" style="isolation:isolate" viewBox="0 0 128 128" width="128pt" height="128pt"><defs><clipPath id="_clipPath_KxaLax7DuB7e6sVQOlz90HCKLsN8XdEB"><rect width="128" height="128"/></clipPath></defs><g clip-path="url(#_clipPath_KxaLax7DuB7e6sVQOlz90HCKLsN8XdEB)"><circle vector-effect="non-scaling-stroke" cx="64.00000000000001" cy="64" r="64.00000000000001" fill="rgb(23,20,47)"/><g><path d=" M 35.377 99.548 C 27.22 95.232 24.123 85.145 28.463 77.036 C 32.804 68.927 42.95 65.847 51.106 70.163 C 59.262 74.478 62.359 84.566 58.019 92.675 C 53.678 100.784 43.532 103.863 35.377 99.548 Z " fill="rgb(32,232,155)"/><path d=" M 76.894 57.837 C 68.738 53.522 65.641 43.434 69.981 35.325 C 74.322 27.216 84.467 24.136 92.624 28.452 C 100.779 32.768 103.877 42.855 99.537 50.964 C 95.196 59.073 85.05 62.153 76.894 57.837 Z " fill="rgb(32,232,155)"/><path d=" M 35.377 57.837 C 27.22 53.522 24.123 43.434 28.463 35.325 C 32.804 27.216 42.95 24.136 51.106 28.452 C 59.262 32.768 62.359 42.855 58.019 50.964 C 53.678 59.073 43.532 62.153 35.377 57.837 Z " fill="rgb(32,232,155)"/></g></g></svg>